<?xml version="1.0" standalone="no"?>
<!DOCTYPE svg PUBLIC "-//W3C//DTD SVG 20010904//EN"
 "http://www.w3.org/TR/2001/REC-SVG-20010904/DTD/svg10.dtd">
<svg version="1.0" xmlns="http://www.w3.org/2000/svg"
 width="512.000000pt" height="512.000000pt" viewBox="0 0 512.000000 512.000000"
 preserveAspectRatio="xMidYMid meet">
<metadata>
Created by potrace 1.14, written by Peter Selinger 2001-2017
</metadata>
<g transform="translate(0.000000,512.000000) scale(0.100000,-0.100000)"
fill="#000000" stroke="none">
<path d="M4078 4544 c-59 -14 -210 -86 -238 -114 -3 -3 -27 -23 -55 -45 -27
-22 -87 -76 -132 -120 -75 -74 -83 -85 -84 -121 -1 -68 -9 -137 -24 -218 -8
-44 -14 -81 -12 -81 1 -1 151 -78 332 -170 182 -93 354 -181 384 -197 30 -15
57 -28 60 -28 3 0 34 26 69 59 62 58 153 114 215 132 18 5 93 12 167 15 103 4
146 10 180 25 78 34 132 128 164 282 9 42 16 81 16 86 0 13 -47 33 -114 50
-67 17 -179 71 -262 128 -63 42 -202 149 -214 164 -3 3 -36 28 -75 54 -144 99
-254 127 -377 99z"/>
<path d="M3387 3574 c-90 -101 -207 -171 -358 -213 -189 -52 -298 -59 -984
-66 -220 -2 -413 -6 -430 -8 -16 -3 -61 -8 -100 -12 -179 -17 -430 -83 -553
-144 -113 -56 -128 -65 -202 -120 -163 -120 -253 -237 -375 -486 -105 -216
-219 -518 -270 -716 -9 -34 -25 -81 -35 -103 -62 -141 -80 -213 -76 -308 5
-102 40 -127 92 -65 23 27 123 224 157 307 5 14 13 34 18 45 4 11 25 61 47
110 22 50 50 113 62 140 13 28 87 181 166 342 l143 291 36 -11 c44 -13 88 -54
114 -106 16 -31 70 -224 96 -341 1 -8 8 -34 14 -57 42 -155 41 -322 -3 -523
-13 -59 -14 -170 -2 -227 11 -54 19 -224 20 -463 1 -142 5 -262 9 -267 9 -8
404 -12 416 -3 15 10 32 68 34 112 2 85 -39 118 -150 121 l-63 1 -1 96 c0 52
-2 172 -4 267 l-3 172 65 68 c135 142 262 338 293 453 7 25 12 46 12 47 -1 2
4 17 9 35 6 18 13 91 15 161 4 134 11 159 45 178 88 47 289 -9 634 -176 293
-141 441 -184 627 -180 115 2 140 6 227 30 19 6 19 -1 18 -177 -1 -193 12
-468 28 -563 3 -16 7 -64 11 -105 3 -41 7 -85 9 -98 2 -13 7 -53 10 -90 4 -37
8 -78 10 -91 2 -12 7 -60 11 -105 4 -44 8 -92 10 -106 1 -14 2 -32 3 -40 1
-13 34 -15 239 -15 130 0 243 4 251 9 7 5 21 27 31 49 24 53 18 113 -14 146
-21 20 -33 24 -83 23 -32 -1 -70 -3 -85 -5 -16 -3 -28 -1 -29 2 0 3 -2 15 -3
26 -3 19 -11 92 -22 200 -13 124 -19 508 -10 630 21 280 23 295 52 295 22 0
181 77 234 114 78 53 173 158 215 237 78 147 108 267 140 569 21 195 46 336
70 393 16 40 22 35 -115 92 -62 26 -195 83 -512 221 -80 35 -150 64 -155 64
-4 0 -30 -25 -56 -56z"/>
</g>
</svg>
