<?xml version="1.0" encoding="UTF-8"?>
<svg xmlns="http://www.w3.org/2000/svg" xmlns:xlink="http://www.w3.org/1999/xlink" width="30px" height="30px" viewBox="0 0 30 30" version="1.1">
<g id="surface1">
<path style=" stroke:none;fill-rule:nonzero;fill:rgb(87.843137%,87.843137%,68.627451%);fill-opacity:1;" d="M 21.65625 17.929688 C 21.140625 17.757812 20.800781 17.273438 20.800781 16.734375 L 20.800781 16.722656 C 20.800781 13.515625 18.203125 10.917969 14.996094 10.917969 C 11.789062 10.917969 9.191406 13.515625 9.191406 16.722656 L 9.191406 16.734375 C 9.191406 17.273438 8.851562 17.757812 8.335938 17.929688 C 6.03125 18.707031 4.371094 20.890625 4.382812 23.460938 C 4.398438 26.59375 6.9375 29.175781 10.070312 29.238281 C 10.429688 29.246094 10.785156 29.21875 11.132812 29.164062 C 13.695312 28.742188 16.296875 28.742188 18.863281 29.164062 C 19.207031 29.21875 19.5625 29.246094 19.921875 29.238281 C 23.054688 29.175781 25.59375 26.59375 25.609375 23.460938 C 25.621094 20.890625 23.960938 18.707031 21.65625 17.929688 Z M 21.65625 17.929688 "/>
<path style=" stroke:none;fill-rule:nonzero;fill:rgb(100%,99.607843%,99.607843%);fill-opacity:1;" d="M 19.980469 19.507812 C 19.59375 19.378906 19.339844 19.015625 19.339844 18.609375 L 19.339844 18.601562 C 19.339844 16.203125 17.394531 14.257812 14.996094 14.257812 C 12.597656 14.257812 10.652344 16.203125 10.652344 18.601562 L 10.652344 18.609375 C 10.65625 19.015625 10.398438 19.378906 10.015625 19.507812 C 8.289062 20.085938 7.046875 21.722656 7.054688 23.644531 C 7.0625 25.988281 8.96875 27.921875 11.3125 27.96875 C 11.578125 27.972656 11.84375 27.953125 12.101562 27.914062 C 14.023438 27.597656 15.96875 27.597656 17.890625 27.914062 C 18.148438 27.953125 18.414062 27.972656 18.679688 27.96875 C 21.023438 27.921875 22.929688 25.988281 22.9375 23.644531 C 22.945312 21.722656 21.703125 20.085938 19.980469 19.507812 Z M 19.980469 19.507812 "/>
<path style=" stroke:none;fill-rule:nonzero;fill:rgb(87.843137%,87.843137%,68.627451%);fill-opacity:1;" d="M 28.757812 15.347656 C 27.960938 16.9375 26.027344 17.585938 24.4375 16.789062 C 22.84375 15.992188 22.199219 14.0625 22.992188 12.46875 C 23.789062 10.875 26.703125 8.273438 28.292969 9.070312 C 29.882812 9.863281 29.554688 13.757812 28.757812 15.347656 Z M 1.234375 15.347656 C 2.03125 16.9375 3.964844 17.585938 5.554688 16.789062 C 7.148438 15.992188 7.792969 14.0625 7 12.46875 C 6.203125 10.875 3.289062 8.273438 1.699219 9.070312 C 0.109375 9.863281 0.441406 13.757812 1.234375 15.347656 Z M 23.5 6.246094 C 23.5 8.210938 21.90625 9.804688 19.9375 9.804688 C 17.972656 9.804688 16.378906 8.210938 16.378906 6.246094 C 16.378906 4.28125 17.972656 0.703125 19.9375 0.703125 C 21.90625 0.703125 23.5 4.28125 23.5 6.246094 Z M 6.492188 6.246094 C 6.492188 8.210938 8.085938 9.804688 10.054688 9.804688 C 12.019531 9.804688 13.617188 8.210938 13.617188 6.246094 C 13.617188 4.28125 12.019531 0.703125 10.054688 0.703125 C 8.085938 0.703125 6.492188 4.28125 6.492188 6.246094 Z M 6.492188 6.246094 "/>
<path style=" stroke:none;fill-rule:nonzero;fill:rgb(100%,99.607843%,99.607843%);fill-opacity:1;" d="M 28.171875 15.101562 C 27.585938 16.28125 26.152344 16.757812 24.976562 16.167969 C 23.796875 15.578125 23.320312 14.148438 23.90625 12.96875 C 24.496094 11.792969 26.652344 9.867188 27.828125 10.453125 C 29.007812 11.042969 28.757812 13.921875 28.171875 15.101562 Z M 1.820312 15.101562 C 2.40625 16.28125 3.839844 16.757812 5.015625 16.167969 C 6.195312 15.578125 6.671875 14.148438 6.085938 12.96875 C 5.496094 11.792969 3.339844 9.867188 2.164062 10.453125 C 0.984375 11.042969 1.234375 13.921875 1.820312 15.101562 Z M 22.609375 6.941406 C 22.609375 8.398438 21.429688 9.578125 19.976562 9.578125 C 18.523438 9.578125 17.34375 8.398438 17.34375 6.941406 C 17.34375 5.484375 18.523438 2.839844 19.976562 2.839844 C 21.429688 2.839844 22.609375 5.484375 22.609375 6.941406 Z M 7.382812 6.941406 C 7.382812 8.398438 8.5625 9.578125 10.015625 9.578125 C 11.46875 9.578125 12.648438 8.398438 12.648438 6.941406 C 12.648438 5.484375 11.46875 2.839844 10.015625 2.839844 C 8.5625 2.839844 7.382812 5.484375 7.382812 6.941406 Z M 7.382812 6.941406 "/>
<path style=" stroke:none;fill-rule:nonzero;fill:rgb(0%,0%,0%);fill-opacity:1;" d="M 21.84375 17.414062 C 21.566406 17.320312 21.378906 17.058594 21.382812 16.757812 L 21.382812 16.75 C 21.382812 13.234375 18.515625 10.371094 15 10.371094 C 11.484375 10.371094 8.617188 13.234375 8.617188 16.75 L 8.617188 16.761719 C 8.617188 17.058594 8.433594 17.320312 8.15625 17.414062 C 5.546875 18.292969 3.796875 20.734375 3.8125 23.492188 C 3.820312 25.390625 4.675781 27.179688 6.160156 28.398438 C 6.40625 28.601562 6.769531 28.5625 6.96875 28.320312 C 7.171875 28.070312 7.136719 27.710938 6.890625 27.507812 C 5.671875 26.507812 4.96875 25.042969 4.960938 23.484375 C 4.953125 21.226562 6.382812 19.226562 8.523438 18.507812 C 9.269531 18.253906 9.773438 17.554688 9.773438 16.761719 L 9.773438 16.75 C 9.773438 13.867188 12.117188 11.523438 15 11.523438 C 17.882812 11.523438 20.226562 13.867188 20.226562 16.75 L 20.226562 16.757812 C 20.226562 17.554688 20.730469 18.253906 21.476562 18.507812 C 23.617188 19.226562 25.046875 21.226562 25.039062 23.484375 C 25.023438 26.300781 22.726562 28.632812 19.914062 28.691406 C 19.59375 28.695312 19.273438 28.675781 18.960938 28.625 C 16.332031 28.195312 13.667969 28.195312 11.039062 28.625 C 10.726562 28.671875 10.40625 28.695312 10.085938 28.691406 C 9.789062 28.6875 9.492188 28.65625 9.199219 28.597656 C 8.890625 28.539062 8.585938 28.742188 8.523438 29.054688 C 8.464844 29.367188 8.667969 29.664062 8.980469 29.726562 C 9.335938 29.796875 9.699219 29.835938 10.0625 29.84375 C 10.105469 29.84375 10.148438 29.84375 10.1875 29.84375 C 10.539062 29.84375 10.886719 29.8125 11.226562 29.757812 C 13.730469 29.351562 16.269531 29.351562 18.773438 29.757812 C 19.15625 29.820312 19.546875 29.851562 19.9375 29.84375 C 23.367188 29.773438 26.171875 26.925781 26.1875 23.492188 C 26.203125 20.734375 24.453125 18.292969 21.84375 17.414062 Z M 21.84375 17.414062 "/>
<path style=" stroke:none;fill-rule:nonzero;fill:rgb(0%,0%,0%);fill-opacity:1;" d="M 28.554688 8.582031 C 27.644531 8.125 26.382812 8.429688 25.007812 9.4375 C 23.945312 10.210938 22.933594 11.339844 22.484375 12.242188 C 22.351562 12.507812 22.25 12.789062 22.179688 13.078125 C 22.109375 13.386719 22.300781 13.695312 22.609375 13.769531 C 22.921875 13.84375 23.226562 13.648438 23.300781 13.339844 C 23.347656 13.140625 23.421875 12.941406 23.515625 12.753906 C 23.882812 12.015625 24.777344 11.03125 25.6875 10.367188 C 26.671875 9.648438 27.546875 9.367188 28.039062 9.609375 C 29.152344 10.167969 28.996094 13.617188 28.246094 15.117188 C 27.59375 16.421875 26 16.953125 24.695312 16.304688 C 24.164062 16.039062 23.75 15.617188 23.492188 15.082031 C 23.359375 14.796875 23.015625 14.671875 22.726562 14.8125 C 22.4375 14.945312 22.320312 15.289062 22.453125 15.578125 C 22.824219 16.34375 23.421875 16.953125 24.183594 17.335938 C 24.726562 17.605469 25.304688 17.734375 25.875 17.734375 C 27.265625 17.734375 28.609375 16.960938 29.273438 15.632812 C 29.726562 14.734375 30.015625 13.246094 30 11.929688 C 29.976562 10.226562 29.464844 9.039062 28.554688 8.582031 Z M 5.816406 17.335938 C 6.726562 16.878906 7.398438 16.101562 7.722656 15.140625 C 8.042969 14.175781 7.96875 13.148438 7.515625 12.242188 C 7.066406 11.339844 6.054688 10.210938 4.992188 9.4375 C 3.617188 8.429688 2.355469 8.125 1.445312 8.582031 C 0.535156 9.039062 0.0234375 10.226562 0 11.929688 C -0.015625 13.246094 0.273438 14.734375 0.726562 15.632812 C 1.390625 16.960938 2.734375 17.734375 4.125 17.734375 C 4.695312 17.734375 5.273438 17.601562 5.816406 17.335938 Z M 1.753906 15.117188 C 1.003906 13.617188 0.847656 10.167969 1.960938 9.609375 C 2.453125 9.367188 3.328125 9.648438 4.3125 10.367188 C 5.222656 11.03125 6.117188 12.015625 6.484375 12.753906 C 6.804688 13.386719 6.851562 14.101562 6.632812 14.773438 C 6.40625 15.445312 5.9375 15.988281 5.304688 16.304688 C 4 16.953125 2.40625 16.421875 1.753906 15.117188 Z M 19.941406 10.410156 C 22.222656 10.410156 24.078125 8.554688 24.078125 6.273438 C 24.078125 4.125 22.375 0.15625 19.941406 0.15625 C 17.511719 0.15625 15.804688 4.125 15.804688 6.273438 C 15.804688 8.554688 17.664062 10.410156 19.941406 10.410156 Z M 17.925781 3.046875 C 18.550781 1.945312 19.289062 1.308594 19.941406 1.308594 C 20.597656 1.308594 21.332031 1.945312 21.960938 3.046875 C 22.539062 4.074219 22.929688 5.367188 22.929688 6.273438 C 22.929688 7.921875 21.585938 9.257812 19.941406 9.257812 C 18.296875 9.257812 16.957031 7.921875 16.957031 6.273438 C 16.957031 5.367188 17.34375 4.074219 17.925781 3.046875 Z M 10.054688 10.410156 C 10.679688 10.410156 11.277344 10.273438 11.835938 10.007812 C 12.125 9.875 12.242188 9.53125 12.109375 9.242188 C 11.96875 8.953125 11.625 8.835938 11.339844 8.96875 C 10.9375 9.164062 10.507812 9.257812 10.054688 9.257812 C 8.414062 9.257812 7.070312 7.921875 7.070312 6.273438 C 7.070312 5.367188 7.460938 4.074219 8.039062 3.046875 C 8.664062 1.945312 9.402344 1.308594 10.054688 1.308594 C 10.710938 1.308594 11.449219 1.945312 12.074219 3.046875 C 12.652344 4.074219 13.042969 5.367188 13.042969 6.273438 C 13.042969 6.875 12.867188 7.449219 12.53125 7.945312 C 12.355469 8.207031 12.421875 8.5625 12.6875 8.742188 C 12.953125 8.921875 13.308594 8.851562 13.484375 8.585938 C 13.949219 7.902344 14.195312 7.101562 14.195312 6.273438 C 14.195312 4.125 12.488281 0.15625 10.054688 0.15625 C 7.625 0.15625 5.921875 4.125 5.921875 6.273438 C 5.921875 8.554688 7.777344 10.410156 10.054688 10.410156 Z M 10.054688 10.410156 "/>
</g>
</svg>
