<?xml version="1.0" encoding="UTF-8"?>
<svg xmlns="http://www.w3.org/2000/svg" xmlns:xlink="http://www.w3.org/1999/xlink" width="60px" height="60px" viewBox="0 0 60 60" version="1.1">
<g id="surface1">
<path style=" stroke:none;fill-rule:nonzero;fill:rgb(87.843137%,87.843137%,68.627451%);fill-opacity:1;" d="M 43.3125 35.863281 C 42.285156 35.519531 41.601562 34.546875 41.601562 33.464844 L 41.601562 33.445312 C 41.601562 27.03125 36.40625 21.835938 29.992188 21.835938 C 23.582031 21.835938 18.382812 27.03125 18.382812 33.445312 L 18.382812 33.464844 C 18.382812 34.546875 17.699219 35.519531 16.671875 35.863281 C 12.058594 37.414062 8.742188 41.78125 8.765625 46.921875 C 8.792969 53.183594 13.878906 58.351562 20.140625 58.476562 C 20.863281 58.492188 21.570312 58.4375 22.261719 58.328125 C 27.386719 57.488281 32.597656 57.488281 37.726562 58.328125 C 38.414062 58.4375 39.121094 58.492188 39.847656 58.476562 C 46.105469 58.351562 51.191406 53.183594 51.222656 46.921875 C 51.242188 41.78125 47.925781 37.414062 43.3125 35.863281 Z M 43.3125 35.863281 "/>
<path style=" stroke:none;fill-rule:nonzero;fill:rgb(100%,99.607843%,99.607843%);fill-opacity:1;" d="M 39.960938 39.015625 C 39.191406 38.757812 38.679688 38.03125 38.679688 37.222656 L 38.679688 37.207031 C 38.679688 32.410156 34.789062 28.519531 29.992188 28.519531 C 25.195312 28.519531 21.304688 32.410156 21.304688 37.207031 L 21.304688 37.222656 C 21.308594 38.03125 20.792969 38.757812 20.027344 39.015625 C 16.574219 40.175781 14.089844 43.445312 14.109375 47.289062 C 14.128906 51.976562 17.933594 55.84375 22.621094 55.9375 C 23.160156 55.945312 23.691406 55.90625 24.207031 55.824219 C 28.042969 55.195312 31.941406 55.195312 35.777344 55.824219 C 36.292969 55.90625 36.824219 55.945312 37.363281 55.9375 C 42.050781 55.84375 45.855469 51.976562 45.875 47.289062 C 45.894531 43.445312 43.410156 40.175781 39.960938 39.015625 Z M 39.960938 39.015625 "/>
<path style=" stroke:none;fill-rule:nonzero;fill:rgb(87.843137%,87.843137%,68.627451%);fill-opacity:1;" d="M 57.515625 30.695312 C 55.925781 33.878906 52.054688 35.167969 48.871094 33.578125 C 45.691406 31.988281 44.398438 28.121094 45.988281 24.9375 C 47.578125 21.753906 53.40625 16.546875 56.585938 18.136719 C 59.769531 19.726562 59.105469 27.511719 57.515625 30.695312 Z M 2.472656 30.695312 C 4.0625 33.878906 7.929688 35.167969 11.113281 33.578125 C 14.296875 31.988281 15.585938 28.121094 13.996094 24.9375 C 12.40625 21.753906 6.582031 16.546875 3.398438 18.136719 C 0.214844 19.726562 0.882812 27.511719 2.472656 30.695312 Z M 46.996094 12.492188 C 46.996094 16.425781 43.808594 19.613281 39.878906 19.613281 C 35.945312 19.613281 32.757812 16.425781 32.757812 12.492188 C 32.757812 8.558594 35.945312 1.40625 39.878906 1.40625 C 43.808594 1.40625 46.996094 8.558594 46.996094 12.492188 Z M 12.988281 12.492188 C 12.988281 16.425781 16.175781 19.613281 20.109375 19.613281 C 24.039062 19.613281 27.230469 16.425781 27.230469 12.492188 C 27.230469 8.558594 24.039062 1.40625 20.109375 1.40625 C 16.175781 1.40625 12.988281 8.558594 12.988281 12.492188 Z M 12.988281 12.492188 "/>
<path style=" stroke:none;fill-rule:nonzero;fill:rgb(100%,99.607843%,99.607843%);fill-opacity:1;" d="M 56.34375 30.203125 C 55.167969 32.558594 52.304688 33.511719 49.949219 32.335938 C 47.59375 31.160156 46.640625 28.296875 47.816406 25.941406 C 48.992188 23.585938 53.304688 19.730469 55.660156 20.910156 C 58.015625 22.085938 57.519531 27.847656 56.34375 30.203125 Z M 3.640625 30.203125 C 4.816406 32.558594 7.679688 33.511719 10.035156 32.335938 C 12.390625 31.160156 13.347656 28.296875 12.167969 25.941406 C 10.992188 23.585938 6.679688 19.730469 4.328125 20.910156 C 1.972656 22.085938 2.464844 27.847656 3.640625 30.203125 Z M 45.222656 13.882812 C 45.222656 16.792969 42.863281 19.152344 39.953125 19.152344 C 37.042969 19.152344 34.683594 16.792969 34.683594 13.882812 C 34.683594 10.972656 37.042969 5.679688 39.953125 5.679688 C 42.863281 5.679688 45.222656 10.972656 45.222656 13.882812 Z M 14.761719 13.882812 C 14.761719 16.792969 17.121094 19.152344 20.03125 19.152344 C 22.941406 19.152344 25.300781 16.792969 25.300781 13.882812 C 25.300781 10.972656 22.941406 5.679688 20.03125 5.679688 C 17.121094 5.679688 14.761719 10.972656 14.761719 13.882812 Z M 14.761719 13.882812 "/>
<path style=" stroke:none;fill-rule:nonzero;fill:rgb(0%,0%,0%);fill-opacity:1;" d="M 43.6875 34.828125 C 43.132812 34.644531 42.757812 34.117188 42.761719 33.519531 L 42.761719 33.5 C 42.761719 26.464844 37.035156 20.742188 30 20.742188 C 22.964844 20.742188 17.238281 26.464844 17.238281 33.5 L 17.238281 33.523438 C 17.238281 34.117188 16.867188 34.644531 16.3125 34.828125 C 11.089844 36.585938 7.597656 41.46875 7.621094 46.984375 C 7.636719 50.785156 9.351562 54.363281 12.320312 56.796875 C 12.8125 57.199219 13.539062 57.128906 13.941406 56.636719 C 14.34375 56.144531 14.273438 55.417969 13.78125 55.015625 C 11.34375 53.019531 9.9375 50.085938 9.921875 46.972656 C 9.902344 42.453125 12.765625 38.449219 17.046875 37.011719 C 18.539062 36.507812 19.542969 35.105469 19.542969 33.523438 L 19.542969 33.5 C 19.542969 27.734375 24.234375 23.042969 30 23.042969 C 35.765625 23.042969 40.457031 27.734375 40.457031 33.5 L 40.457031 33.519531 C 40.457031 35.105469 41.460938 36.507812 42.953125 37.011719 C 47.234375 38.449219 50.097656 42.453125 50.078125 46.972656 C 50.050781 52.601562 45.457031 57.269531 39.832031 57.382812 C 39.1875 57.394531 38.546875 57.351562 37.917969 57.246094 C 32.664062 56.390625 27.335938 56.390625 22.082031 57.246094 C 21.453125 57.347656 20.808594 57.394531 20.167969 57.382812 C 19.574219 57.371094 18.980469 57.308594 18.398438 57.195312 C 17.777344 57.074219 17.171875 57.480469 17.050781 58.105469 C 16.929688 58.730469 17.335938 59.332031 17.960938 59.453125 C 18.671875 59.59375 19.398438 59.667969 20.125 59.683594 C 20.210938 59.6875 20.292969 59.6875 20.378906 59.6875 C 21.074219 59.6875 21.773438 59.628906 22.453125 59.519531 C 27.460938 58.699219 32.539062 58.699219 37.546875 59.519531 C 38.3125 59.644531 39.09375 59.699219 39.875 59.683594 C 46.738281 59.546875 52.347656 53.851562 52.378906 46.984375 C 52.402344 41.46875 48.910156 36.585938 43.6875 34.828125 Z M 43.6875 34.828125 "/>
<path style=" stroke:none;fill-rule:nonzero;fill:rgb(0%,0%,0%);fill-opacity:1;" d="M 57.109375 17.164062 C 55.289062 16.253906 52.769531 16.863281 50.019531 18.875 C 47.894531 20.425781 45.867188 22.679688 44.964844 24.480469 C 44.699219 25.015625 44.496094 25.578125 44.359375 26.15625 C 44.21875 26.773438 44.601562 27.394531 45.222656 27.539062 C 45.839844 27.683594 46.457031 27.296875 46.601562 26.679688 C 46.695312 26.277344 46.839844 25.882812 47.027344 25.507812 C 47.765625 24.03125 49.554688 22.066406 51.378906 20.734375 C 53.339844 19.296875 55.097656 18.734375 56.078125 19.222656 C 58.304688 20.335938 57.992188 27.230469 56.492188 30.238281 C 55.1875 32.847656 52.003906 33.910156 49.394531 32.605469 C 48.332031 32.074219 47.5 31.230469 46.988281 30.164062 C 46.714844 29.589844 46.027344 29.347656 45.453125 29.621094 C 44.878906 29.894531 44.636719 30.582031 44.910156 31.15625 C 45.648438 32.691406 46.839844 33.90625 48.367188 34.667969 C 49.453125 35.210938 50.605469 35.464844 51.746094 35.464844 C 54.535156 35.464844 57.222656 33.925781 58.550781 31.265625 C 59.449219 29.464844 60.03125 26.492188 60 23.863281 C 59.953125 20.453125 58.929688 18.074219 57.109375 17.164062 Z M 11.632812 34.667969 C 13.449219 33.757812 14.800781 32.199219 15.445312 30.277344 C 16.085938 28.351562 15.941406 26.292969 15.035156 24.480469 C 14.132812 22.679688 12.105469 20.425781 9.980469 18.875 C 7.230469 16.863281 4.710938 16.253906 2.890625 17.164062 C 1.070312 18.074219 0.046875 20.453125 0 23.863281 C -0.03125 26.492188 0.550781 29.464844 1.449219 31.265625 C 2.777344 33.925781 5.464844 35.464844 8.253906 35.464844 C 9.390625 35.464844 10.546875 35.207031 11.632812 34.667969 Z M 3.507812 30.238281 C 2.007812 27.230469 1.695312 20.335938 3.917969 19.222656 C 4.902344 18.734375 6.660156 19.296875 8.621094 20.734375 C 10.445312 22.066406 12.234375 24.03125 12.972656 25.507812 C 13.605469 26.773438 13.707031 28.207031 13.261719 29.546875 C 12.8125 30.890625 11.871094 31.976562 10.605469 32.605469 C 7.996094 33.910156 4.8125 32.847656 3.507812 30.238281 Z M 39.882812 20.820312 C 44.445312 20.820312 48.15625 17.109375 48.15625 12.550781 C 48.15625 8.25 44.746094 0.3125 39.882812 0.3125 C 35.023438 0.3125 31.613281 8.25 31.613281 12.550781 C 31.613281 17.109375 35.324219 20.820312 39.882812 20.820312 Z M 35.851562 6.097656 C 37.101562 3.886719 38.574219 2.617188 39.882812 2.617188 C 41.195312 2.617188 42.664062 3.886719 43.917969 6.097656 C 45.074219 8.148438 45.855469 10.738281 45.855469 12.550781 C 45.855469 15.839844 43.175781 18.519531 39.882812 18.519531 C 36.59375 18.519531 33.914062 15.839844 33.914062 12.550781 C 33.914062 10.738281 34.691406 8.148438 35.851562 6.097656 Z M 20.113281 20.820312 C 21.359375 20.820312 22.554688 20.550781 23.671875 20.019531 C 24.246094 19.746094 24.488281 19.058594 24.214844 18.484375 C 23.941406 17.910156 23.253906 17.667969 22.679688 17.941406 C 21.878906 18.324219 21.015625 18.519531 20.113281 18.519531 C 16.824219 18.519531 14.144531 15.839844 14.144531 12.550781 C 14.144531 10.738281 14.925781 8.148438 16.082031 6.097656 C 17.332031 3.886719 18.804688 2.617188 20.113281 2.617188 C 21.425781 2.617188 22.898438 3.886719 24.148438 6.097656 C 25.304688 8.148438 26.085938 10.738281 26.085938 12.550781 C 26.085938 13.746094 25.730469 14.898438 25.066406 15.886719 C 24.710938 16.414062 24.847656 17.128906 25.375 17.484375 C 25.902344 17.839844 26.617188 17.703125 26.972656 17.175781 C 27.898438 15.804688 28.386719 14.207031 28.386719 12.550781 C 28.386719 8.25 24.976562 0.3125 20.113281 0.3125 C 15.253906 0.3125 11.84375 8.25 11.84375 12.550781 C 11.84375 17.109375 15.554688 20.820312 20.113281 20.820312 Z M 20.113281 20.820312 "/>
</g>
</svg>
